<?xml version="1.0" encoding="iso-8859-1"?>
<!-- Uploaded to: SVG Repo, www.svgrepo.com, Generator: SVG Repo Mixer Tools -->
<svg height="800px" width="800px" version="1.1" id="Layer_1" xmlns="http://www.w3.org/2000/svg" xmlns:xlink="http://www.w3.org/1999/xlink" 
	 viewBox="0 0 504.4 504.4" xml:space="preserve">
<path style="fill:#F4EFEF;" d="M498.4,118.8c0-24-19.6-43.6-43.6-43.6H45.6C21.6,75.2,2,94.8,2,118.8V404c0,24,19.6,43.6,43.6,43.6
	h409.2c24,0,43.6-19.6,43.6-43.6L498.4,118.8L498.4,118.8z"/>
<path style="fill:#DF5C4E;" d="M502.4,123.2V118c0-24-15.6-42.8-39.6-42.8H53.6C29.6,75.2,6.4,94,6.4,118v5.2H502.4z"/>
<path d="M130.4,197.2h-60c-2.4,0-4-1.6-4-4s1.6-4,4-4h60c2.4,0,4,1.6,4,4S132.8,197.2,130.4,197.2z"/>
<path d="M130.4,261.2h-60c-2.4,0-4-1.6-4-4c0-2.4,1.6-4,4-4h60c2.4,0,4,1.6,4,4C134.4,259.6,132.8,261.2,130.4,261.2z"/>
<path d="M130.4,325.2h-60c-2.4,0-4-1.6-4-4s1.6-4,4-4h60c2.4,0,4,1.6,4,4S132.8,325.2,130.4,325.2z"/>
<path d="M130.4,389.2h-60c-2.4,0-4-1.6-4-4s1.6-4,4-4h60c2.4,0,4,1.6,4,4S132.8,389.2,130.4,389.2z"/>
<path d="M456.8,453.2H47.6C21.6,453.2,0,432,0,405.6V120.4c0-26,21.2-47.6,47.6-47.6h409.2c26,0,47.6,21.2,47.6,47.6v285.2
	C504.4,432,483.2,453.2,456.8,453.2z M48,81.2c-21.6,0-39.6,17.6-39.6,39.6V406c0,21.6,17.6,39.6,39.6,39.6h409.2
	c21.6,0,39.6-17.6,39.6-39.6V120.8c0-21.6-17.6-39.6-39.6-39.6L48,81.2L48,81.2z"/>
<path d="M390.4,129.2h-376c-2.4,0-4-1.6-4-4s1.6-4,4-4h376c2.4,0,4,1.6,4,4S392.8,129.2,390.4,129.2z"/>
<path d="M498.4,129.2h-56c-2.4,0-4-1.6-4-4s1.6-4,4-4h56c2.4,0,4,1.6,4,4S500.8,129.2,498.4,129.2z"/>
<path d="M72.4,99.2c-2.4,0-4-1.6-4-4v-40c0-2.4,1.6-4,4-4s4,1.6,4,4v40C76.4,97.6,74.8,99.2,72.4,99.2z"/>
<path d="M132.4,99.2c-2.4,0-4-1.6-4-4v-40c0-2.4,1.6-4,4-4s4,1.6,4,4v40C136.4,97.6,134.8,99.2,132.4,99.2z"/>
<path d="M192.4,99.2c-2.4,0-4-1.6-4-4v-40c0-2.4,1.6-4,4-4s4,1.6,4,4v40C196.4,97.6,194.8,99.2,192.4,99.2z"/>
<path d="M252.4,99.2c-2.4,0-4-1.6-4-4v-40c0-2.4,1.6-4,4-4s4,1.6,4,4v40C256.4,97.6,254.8,99.2,252.4,99.2z"/>
<path d="M312.4,99.2c-2.4,0-4-1.6-4-4v-40c0-2.4,1.6-4,4-4s4,1.6,4,4v40C316.4,97.6,314.8,99.2,312.4,99.2z"/>
<path d="M372.4,99.2c-2.4,0-4-1.6-4-4v-40c0-2.4,1.6-4,4-4s4,1.6,4,4v40C376.4,97.6,374.8,99.2,372.4,99.2z"/>
<path d="M432.4,99.2c-2.4,0-4-1.6-4-4v-40c0-2.4,1.6-4,4-4s4,1.6,4,4v40C436.4,97.6,434.8,99.2,432.4,99.2z"/>
<path d="M230.4,197.2h-56c-2.4,0-4-1.6-4-4s1.6-4,4-4h56c2.4,0,4,1.6,4,4S232.8,197.2,230.4,197.2z"/>
<path d="M230.4,261.2h-56c-2.4,0-4-1.6-4-4c0-2.4,1.6-4,4-4h56c2.4,0,4,1.6,4,4C234.4,259.6,232.8,261.2,230.4,261.2z"/>
<path d="M230.4,325.2h-56c-2.4,0-4-1.6-4-4s1.6-4,4-4h56c2.4,0,4,1.6,4,4S232.8,325.2,230.4,325.2z"/>
<path d="M230.4,389.2h-56c-2.4,0-4-1.6-4-4s1.6-4,4-4h56c2.4,0,4,1.6,4,4S232.8,389.2,230.4,389.2z"/>
<path id="SVGCleanerId_0" d="M334.4,197.2h-56c-2.4,0-4-1.6-4-4s1.6-4,4-4h56c2.4,0,4,1.6,4,4S336.8,197.2,334.4,197.2z"/>
<path id="SVGCleanerId_1" d="M334.4,261.2h-56c-2.4,0-4-1.6-4-4c0-2.4,1.6-4,4-4h56c2.4,0,4,1.6,4,4
	C338.4,259.6,336.8,261.2,334.4,261.2z"/>
<path d="M334.4,325.2h-56c-2.4,0-4-1.6-4-4s1.6-4,4-4h56c2.4,0,4,1.6,4,4S336.8,325.2,334.4,325.2z"/>
<path id="SVGCleanerId_2" d="M334.4,389.2h-56c-2.4,0-4-1.6-4-4s1.6-4,4-4h56c2.4,0,4,1.6,4,4S336.8,389.2,334.4,389.2z"/>
<g>
	<path id="SVGCleanerId_0_1_" d="M334.4,197.2h-56c-2.4,0-4-1.6-4-4s1.6-4,4-4h56c2.4,0,4,1.6,4,4S336.8,197.2,334.4,197.2z"/>
</g>
<g>
	<path id="SVGCleanerId_1_1_" d="M334.4,261.2h-56c-2.4,0-4-1.6-4-4c0-2.4,1.6-4,4-4h56c2.4,0,4,1.6,4,4
		C338.4,259.6,336.8,261.2,334.4,261.2z"/>
</g>
<g>
	<path id="SVGCleanerId_2_1_" d="M334.4,389.2h-56c-2.4,0-4-1.6-4-4s1.6-4,4-4h56c2.4,0,4,1.6,4,4S336.8,389.2,334.4,389.2z"/>
</g>
<path d="M438.4,197.2h-56c-2.4,0-4-1.6-4-4s1.6-4,4-4h56c2.4,0,4,1.6,4,4S440.8,197.2,438.4,197.2z"/>
<path d="M438.4,261.2h-56c-2.4,0-4-1.6-4-4c0-2.4,1.6-4,4-4h56c2.4,0,4,1.6,4,4C442.4,259.6,440.8,261.2,438.4,261.2z"/>
<path d="M438.4,325.2h-56c-2.4,0-4-1.6-4-4s1.6-4,4-4h56c2.4,0,4,1.6,4,4S440.8,325.2,438.4,325.2z"/>
<path d="M438.4,389.2h-56c-2.4,0-4-1.6-4-4s1.6-4,4-4h56c2.4,0,4,1.6,4,4S440.8,389.2,438.4,389.2z"/>
</svg>